<svg width="179" height="30" viewBox="0 0 179 30" fill="none" xmlns="http://www.w3.org/2000/svg">
<path d="M58.3316 6.64032C58.1327 7.82609 57.6455 8.81423 56.8699 9.60474C56.0943 10.3953 55.1397 10.9783 54.0062 11.3538C54.921 11.5119 55.6767 11.9763 56.2733 12.747C56.8699 13.5178 57.1682 14.4269 57.1682 15.4743C57.1682 15.7905 57.1384 16.0968 57.0787 16.3933C56.8997 17.4407 56.4622 18.3893 55.7662 19.2391C55.0701 20.0692 54.1553 20.7312 53.0217 21.2253C51.9081 21.6996 50.6651 21.9368 49.2929 21.9368H41L44.6692 1.33399H52.5743C54.4636 1.33399 55.9054 1.73913 56.8997 2.54941C57.914 3.35968 58.4211 4.40711 58.4211 5.6917C58.4211 5.98814 58.3913 6.30435 58.3316 6.64032ZM54.8116 7.05533C54.8514 6.77866 54.8712 6.57115 54.8712 6.43281C54.8712 5.66205 54.6028 5.05929 54.0658 4.6245C53.5289 4.18972 52.7732 3.97233 51.7987 3.97233H47.5926L46.5187 10.0791H50.7248C51.8385 10.0791 52.7533 9.81225 53.4692 9.27866C54.205 8.74506 54.6525 8.00395 54.8116 7.05533ZM53.7377 16.0375C53.7775 15.7213 53.7973 15.4941 53.7973 15.3557C53.7973 14.5455 53.499 13.9032 52.9024 13.4289C52.3058 12.9545 51.5103 12.7174 50.516 12.7174H46.0414L44.878 19.2984H49.4719C50.6254 19.2984 51.5799 19.0119 52.3356 18.4387C53.0913 17.8656 53.5587 17.0652 53.7377 16.0375Z" fill="black"/>
<path d="M67.0983 0L63.1905 21.9368H59.7898L63.6976 0H67.0983Z" fill="black"/>
<path d="M74.8445 22.2036C73.4524 22.2036 72.2293 21.917 71.1753 21.3439C70.1213 20.7708 69.296 19.9605 68.6994 18.913C68.1226 17.8656 67.8343 16.67 67.8343 15.3261C67.8343 13.4881 68.2619 11.8083 69.117 10.2866C69.992 8.76482 71.1853 7.55929 72.6967 6.66996C74.228 5.78063 75.9283 5.33597 77.7977 5.33597C79.1898 5.33597 80.4228 5.63241 81.4967 6.2253C82.5706 6.79842 83.4059 7.60869 84.0025 8.65613C84.619 9.68379 84.9272 10.8794 84.9272 12.2431C84.9272 14.081 84.4798 15.7609 83.5849 17.2826C82.6899 18.8043 81.4768 20.0099 79.9455 20.8992C78.4142 21.7688 76.7139 22.2036 74.8445 22.2036ZM75.2621 19.3577C76.3957 19.3577 77.4298 19.0415 78.3645 18.4091C79.3191 17.7569 80.0648 16.9071 80.6018 15.8597C81.1387 14.7925 81.4072 13.6561 81.4072 12.4506C81.4072 11.087 81.0194 10.0395 80.2438 9.3083C79.4682 8.55731 78.4938 8.18182 77.3204 8.18182C76.167 8.18182 75.1328 8.5079 74.218 9.16008C73.3231 9.79249 72.6171 10.6522 72.1001 11.7391C71.6029 12.8063 71.3543 13.9526 71.3543 15.1779C71.3543 16.502 71.7123 17.5296 72.4282 18.2609C73.164 18.9921 74.1087 19.3577 75.2621 19.3577Z" fill="black"/>
<path d="M96.2538 5.33597C97.5266 5.33597 98.6104 5.59288 99.5053 6.10672C100.42 6.60079 101.076 7.22332 101.474 7.97431L101.892 5.60277H105.322L102.399 22.2036C102.12 23.7055 101.564 25.0395 100.728 26.2055C99.8931 27.3913 98.8093 28.3202 97.4768 28.9921C96.1444 29.664 94.6429 30 92.9724 30C91.5207 30 90.2479 29.7628 89.1541 29.2885C88.0603 28.834 87.235 28.1719 86.6782 27.3024C86.1213 26.4328 85.8827 25.4051 85.9622 24.2194H89.3331C89.4325 25.0692 89.8601 25.751 90.6158 26.2648C91.3715 26.7984 92.336 27.0652 93.5094 27.0652C94.8816 27.0652 96.0649 26.6502 97.0592 25.8202C98.0536 24.9901 98.69 23.7846 98.9684 22.2036L99.4457 19.4763C98.7297 20.247 97.8348 20.8992 96.7609 21.4328C95.687 21.9466 94.5236 22.2036 93.2707 22.2036C92.0178 22.2036 90.9042 21.9269 89.9297 21.3735C88.9552 20.8202 88.1896 20.0395 87.6327 19.0316C87.0958 18.004 86.8273 16.8281 86.8273 15.504C86.8273 14.9111 86.887 14.3083 87.0063 13.6957C87.3046 12.0553 87.9012 10.6028 88.7961 9.33794C89.7109 8.07312 90.8246 7.09486 92.1372 6.40316C93.4497 5.6917 94.8219 5.33597 96.2538 5.33597ZM100.46 13.7549C100.539 13.3794 100.579 12.9743 100.579 12.5395C100.579 11.2154 100.181 10.1779 99.386 9.42688C98.6104 8.65613 97.6359 8.27075 96.4626 8.27075C95.5876 8.27075 94.7324 8.48814 93.8972 8.92292C93.0619 9.33794 92.336 9.96047 91.7195 10.7905C91.103 11.6008 90.6953 12.5692 90.4965 13.6957C90.4169 14.0711 90.3772 14.4763 90.3772 14.9111C90.3772 16.2549 90.7649 17.3221 91.5405 18.1126C92.336 18.8834 93.3204 19.2688 94.4938 19.2688C95.3688 19.2688 96.224 19.0514 97.0592 18.6166C97.8945 18.1818 98.6203 17.5494 99.2369 16.7194C99.8533 15.8696 100.261 14.8814 100.46 13.7549Z" fill="black"/>
<path d="M114.413 22.1443C113.14 22.1443 111.996 21.9466 110.982 21.5514C109.968 21.1364 109.163 20.5435 108.566 19.7727C107.969 18.9822 107.671 18.0534 107.671 16.9862C107.671 16.8478 107.691 16.6008 107.731 16.2451H111.102C111.022 17.1541 111.29 17.915 111.907 18.5277C112.523 19.1206 113.408 19.417 114.562 19.417C115.795 19.417 116.759 19.17 117.455 18.6759C118.151 18.1621 118.5 17.4308 118.5 16.4822C118.5 15.9091 118.321 15.4249 117.963 15.0296C117.624 14.6146 117.187 14.2688 116.65 13.9921C116.133 13.7154 115.407 13.3893 114.472 13.0138C113.239 12.5 112.255 12.0356 111.519 11.6206C110.783 11.2055 110.147 10.6324 109.61 9.90119C109.093 9.16996 108.834 8.25099 108.834 7.14427C108.834 5.91897 109.153 4.85178 109.789 3.94269C110.425 3.01383 111.3 2.30237 112.414 1.8083C113.548 1.31423 114.82 1.06719 116.232 1.06719C117.644 1.06719 118.857 1.30435 119.872 1.77866C120.906 2.2332 121.681 2.88538 122.199 3.73518C122.735 4.56522 122.974 5.54348 122.914 6.66996H119.335C119.414 5.85968 119.166 5.18775 118.589 4.65415C118.012 4.10079 117.177 3.82411 116.083 3.82411C114.93 3.82411 114.005 4.09091 113.309 4.6245C112.633 5.13834 112.295 5.83992 112.295 6.72925C112.295 7.28261 112.464 7.7668 112.802 8.18182C113.16 8.57707 113.607 8.92292 114.144 9.21937C114.681 9.49605 115.407 9.83202 116.322 10.2273C117.555 10.7806 118.539 11.2747 119.275 11.7095C120.031 12.1443 120.677 12.7372 121.214 13.4881C121.751 14.2194 122.02 15.1285 122.02 16.2154C122.02 17.3617 121.701 18.3893 121.065 19.2984C120.429 20.1877 119.534 20.8893 118.38 21.4032C117.227 21.8972 115.904 22.1443 114.413 22.1443Z" fill="black"/>
<path d="M130.63 8.00395C131.346 7.25296 132.24 6.62055 133.314 6.10672C134.408 5.59288 135.582 5.33597 136.834 5.33597C138.087 5.33597 139.201 5.60277 140.175 6.13636C141.15 6.66996 141.906 7.43083 142.443 8.41897C142.98 9.40711 143.248 10.5632 143.248 11.8874C143.248 12.4605 143.188 13.0632 143.069 13.6957C142.771 15.336 142.164 16.8083 141.249 18.1126C140.354 19.3972 139.251 20.4051 137.938 21.1364C136.645 21.8478 135.283 22.2036 133.851 22.2036C132.598 22.2036 131.525 21.9565 130.63 21.4625C129.755 20.9486 129.068 20.3162 128.571 19.5652L126.781 29.7036H123.381L127.647 5.60277H131.047L130.63 8.00395ZM139.609 13.6957C139.688 13.3202 139.728 12.915 139.728 12.4802C139.728 11.1561 139.33 10.1285 138.535 9.39723C137.759 8.64624 136.775 8.27075 135.582 8.27075C134.726 8.27075 133.871 8.48814 133.016 8.92292C132.181 9.35771 131.455 9.99012 130.838 10.8202C130.222 11.6502 129.814 12.6285 129.615 13.7549C129.536 14.1304 129.496 14.5356 129.496 14.9704C129.496 16.2945 129.884 17.3419 130.659 18.1126C131.455 18.8834 132.439 19.2688 133.613 19.2688C134.488 19.2688 135.343 19.0514 136.178 18.6166C137.033 18.1621 137.769 17.5099 138.386 16.6601C139.002 15.8103 139.41 14.8221 139.609 13.6957Z" fill="black"/>
<path d="M152.159 22.2036C150.767 22.2036 149.544 21.917 148.49 21.3439C147.436 20.7708 146.611 19.9605 146.014 18.913C145.438 17.8656 145.149 16.67 145.149 15.3261C145.149 13.4881 145.577 11.8083 146.432 10.2866C147.307 8.76482 148.5 7.55929 150.012 6.66996C151.543 5.78063 153.243 5.33597 155.113 5.33597C156.505 5.33597 157.738 5.63241 158.812 6.2253C159.886 6.79842 160.721 7.60869 161.317 8.65613C161.934 9.68379 162.242 10.8794 162.242 12.2431C162.242 14.081 161.795 15.7609 160.9 17.2826C160.005 18.8043 158.792 20.0099 157.26 20.8992C155.729 21.7688 154.029 22.2036 152.159 22.2036ZM152.577 19.3577C153.711 19.3577 154.745 19.0415 155.679 18.4091C156.634 17.7569 157.38 16.9071 157.917 15.8597C158.454 14.7925 158.722 13.6561 158.722 12.4506C158.722 11.087 158.334 10.0395 157.559 9.3083C156.783 8.55731 155.809 8.18182 154.635 8.18182C153.482 8.18182 152.448 8.5079 151.533 9.16008C150.638 9.79249 149.932 10.6522 149.415 11.7391C148.918 12.8063 148.669 13.9526 148.669 15.1779C148.669 16.502 149.027 17.5296 149.743 18.2609C150.479 18.9921 151.424 19.3577 152.577 19.3577Z" fill="black"/>
<path d="M168.766 17.4012C168.726 17.6779 168.706 17.8557 168.706 17.9348C168.706 18.3498 168.836 18.6561 169.094 18.8538C169.353 19.0316 169.78 19.1206 170.377 19.1206H172.465L171.958 21.9368H169.273C167.961 21.9368 166.956 21.6798 166.26 21.166C165.564 20.6324 165.216 19.7925 165.216 18.6462C165.216 18.2115 165.256 17.7964 165.335 17.4012L166.946 8.35968H165.007L165.485 5.60277H167.453L168.169 1.5415H171.6L170.884 5.60277H174.851L174.374 8.35968H170.377L168.766 17.4012Z" fill="black"/>
<path d="M176.435 22.1443C175.898 22.1443 175.46 21.9763 175.122 21.6403C174.784 21.3043 174.615 20.8794 174.615 20.3656C174.615 19.6739 174.873 19.081 175.391 18.587C175.927 18.0731 176.534 17.8162 177.21 17.8162C177.747 17.8162 178.175 17.9842 178.493 18.3202C178.831 18.6561 179 19.081 179 19.5949C179 20.2866 178.741 20.8893 178.224 21.4032C177.707 21.8972 177.111 22.1443 176.435 22.1443Z" fill="black"/>
<path d="M4 24C3.45 24 2.97917 23.8042 2.5875 23.4125C2.19583 23.0208 2 22.55 2 22V15H4V22H13V24H4ZM8 20C7.45 20 6.97917 19.8042 6.5875 19.4125C6.19583 19.0208 6 18.55 6 18V11H8V18H17V20H8ZM12 16C11.45 16 10.9792 15.8042 10.5875 15.4125C10.1958 15.0208 10 14.55 10 14V8C10 7.45 10.1958 6.97917 10.5875 6.5875C10.9792 6.19583 11.45 6 12 6H20C20.55 6 21.0208 6.19583 21.4125 6.5875C21.8042 6.97917 22 7.45 22 8V14C22 14.55 21.8042 15.0208 21.4125 15.4125C21.0208 15.8042 20.55 16 20 16H12ZM12 14H20V10H12V14Z" fill="black"/>
</svg>
